<svg width="27" height="27" viewBox="0 0 27 27" fill="none" xmlns="http://www.w3.org/2000/svg">
<path d="M10.6672 14C10.6672 12.1591 12.1591 10.6664 14 10.6664C15.8409 10.6664 17.3336 12.1591 17.3336 14C17.3336 15.8409 15.8409 17.3336 14 17.3336C12.1591 17.3336 10.6672 15.8409 10.6672 14ZM8.86511 14C8.86511 16.836 11.164 19.1349 14 19.1349C16.836 19.1349 19.1349 16.836 19.1349 14C19.1349 11.164 16.836 8.8651 14 8.8651C11.164 8.8651 8.86511 11.164 8.86511 14ZM18.1381 8.66155C18.1381 9.32391 18.6753 9.86187 19.3385 9.86187C20.0008 9.86187 20.5388 9.32391 20.5388 8.66155C20.5388 7.99919 20.0016 7.46204 19.3385 7.46204C18.6753 7.46204 18.1381 7.99919 18.1381 8.66155ZM9.95961 22.1397C8.98465 22.0953 8.45477 21.933 8.10259 21.7956C7.6357 21.6139 7.30291 21.3974 6.95234 21.0477C6.60259 20.6979 6.3853 20.3651 6.20436 19.8982C6.06704 19.546 5.90469 19.0162 5.86026 18.0412C5.81179 16.9871 5.8021 16.6704 5.8021 14C5.8021 11.3296 5.8126 11.0137 5.86026 9.9588C5.90469 8.98384 6.06785 8.45477 6.20436 8.10178C6.38611 7.63489 6.60259 7.3021 6.95234 6.95153C7.3021 6.60178 7.6349 6.38449 8.10259 6.20355C8.45477 6.06624 8.98465 5.90388 9.95961 5.85945C11.0137 5.81099 11.3304 5.80129 14 5.80129C16.6704 5.80129 16.9863 5.81179 18.0412 5.85945C19.0162 5.90388 19.5452 6.06704 19.8982 6.20355C20.3651 6.38449 20.6979 6.60178 21.0485 6.95153C21.3982 7.30129 21.6147 7.63489 21.7964 8.10178C21.9338 8.45396 22.0961 8.98384 22.1406 9.9588C22.189 11.0137 22.1987 11.3296 22.1987 14C22.1987 16.6696 22.189 16.9863 22.1406 18.0412C22.0961 19.0162 21.933 19.546 21.7964 19.8982C21.6147 20.3651 21.3982 20.6979 21.0485 21.0477C20.6987 21.3974 20.3651 21.6139 19.8982 21.7956C19.546 21.933 19.0162 22.0953 18.0412 22.1397C16.9871 22.1882 16.6704 22.1979 14 22.1979C11.3304 22.1979 11.0137 22.1882 9.95961 22.1397ZM9.87722 4.06058C8.8126 4.10905 8.08562 4.27787 7.44992 4.52504C6.79241 4.78029 6.23506 5.12278 5.67851 5.67851C5.12278 6.23425 4.78029 6.7916 4.52504 7.44992C4.27787 8.08562 4.10905 8.8126 4.06058 9.87722C4.01131 10.9435 4 11.2843 4 14C4 16.7157 4.01131 17.0565 4.06058 18.1228C4.10905 19.1874 4.27787 19.9144 4.52504 20.5501C4.78029 21.2076 5.12197 21.7658 5.67851 22.3215C6.23425 22.8772 6.7916 23.2189 7.44992 23.475C8.08643 23.7221 8.8126 23.891 9.87722 23.9394C10.9443 23.9879 11.2843 24 14 24C16.7165 24 17.0565 23.9887 18.1228 23.9394C19.1874 23.891 19.9144 23.7221 20.5501 23.475C21.2076 23.2189 21.7649 22.8772 22.3215 22.3215C22.8772 21.7658 23.2189 21.2076 23.475 20.5501C23.7221 19.9144 23.8918 19.1874 23.9394 18.1228C23.9879 17.0557 23.9992 16.7157 23.9992 14C23.9992 11.2843 23.9879 10.9435 23.9394 9.87722C23.891 8.8126 23.7221 8.08562 23.475 7.44992C23.2189 6.79241 22.8772 6.23506 22.3215 5.67851C21.7658 5.12278 21.2076 4.78029 20.5509 4.52504C19.9144 4.27787 19.1874 4.10824 18.1236 4.06058C17.0574 4.01212 16.7165 4 14.0008 4C11.2843 4 10.9443 4.01131 9.87722 4.06058Z" fill="white"/>
</svg>
