<svg width="27" height="27" viewBox="0 0 27 27" fill="none" xmlns="http://www.w3.org/2000/svg">
<path d="M20.0002 4H6C4 4 3 5 3 7L3.00059 21C3.00059 23 4.00021 24 6.00021 24H20.0002C22.0002 24 23.0002 23 23.0002 21V7C23.0002 5 22.0002 4 20.0002 4ZM9.66687 19.8334H7.16687V10.6667H9.66687V19.8334ZM8.41687 9.61C7.61187 9.61 6.95854 8.95167 6.95854 8.14C6.95854 7.32833 7.61187 6.67 8.41687 6.67C9.22187 6.67 9.87521 7.32833 9.87521 8.14C9.87521 8.95167 9.22271 9.61 8.41687 9.61ZM19.6669 19.8334H17.1669V15.1634C17.1669 12.3567 13.8335 12.5692 13.8335 15.1634V19.8334H11.3335V10.6667H13.8335V12.1375C14.9969 9.9825 19.6669 9.82334 19.6669 14.2009V19.8334Z" fill="white"/>
</svg>
