<svg width="27" height="27" viewBox="0 0 27 27" fill="none" xmlns="http://www.w3.org/2000/svg">
<path d="M23 7.89418C22.2642 8.21575 21.4733 8.43232 20.6433 8.52994C21.4908 8.03035 22.1417 7.23872 22.4475 6.29532C21.655 6.758 20.7767 7.09434 19.8417 7.27564C19.0942 6.49057 18.0267 6 16.8467 6C14.1975 6 12.2508 8.43314 12.8492 10.959C9.44 10.7908 6.41667 9.18294 4.3925 6.73913C3.3175 8.55455 3.835 10.9295 5.66167 12.1321C4.99 12.1107 4.35667 11.9295 3.80417 11.6267C3.75917 13.4979 5.12167 15.2486 7.095 15.6382C6.5175 15.7925 5.885 15.8285 5.24167 15.7071C5.76333 17.3117 7.27833 18.4791 9.075 18.5119C7.35 19.8433 5.17667 20.4381 3 20.1854C4.81583 21.3314 6.97333 22 9.29 22C16.9083 22 21.2125 15.6661 20.9525 9.98523C21.7542 9.41509 22.45 8.70386 23 7.89418Z" fill="white"/>
</svg>
