<svg width="27" height="27" viewBox="0 0 27 27" fill="none" xmlns="http://www.w3.org/2000/svg">
<path d="M24.0089 11.4517C24.0583 10.0203 23.7453 8.5997 23.0989 7.32168C22.6603 6.79728 22.0516 6.44339 21.3789 6.32168C18.5964 6.06921 15.8024 5.96573 13.0089 6.01168C10.2255 5.96364 7.44153 6.06378 4.66882 6.31168C4.12064 6.4114 3.61334 6.66853 3.20882 7.05168C2.30882 7.88168 2.20882 9.30168 2.10882 10.5017C1.96373 12.6592 1.96373 14.8241 2.10882 16.9817C2.13775 17.6571 2.23831 18.3275 2.40882 18.9817C2.5294 19.4867 2.77334 19.954 3.11882 20.3417C3.52609 20.7451 4.0452 21.0169 4.60882 21.1217C6.76474 21.3878 8.93704 21.4981 11.1089 21.4517C14.6089 21.5017 17.6788 21.4517 21.3088 21.1717C21.8863 21.0733 22.42 20.8012 22.8389 20.3917C23.1188 20.1116 23.3279 19.7688 23.4489 19.3917C23.8065 18.2943 23.9821 17.1458 23.9688 15.9917C24.0089 15.4317 24.0089 12.0517 24.0089 11.4517ZM10.7488 16.5917V10.4017L16.6688 13.5117C15.0089 14.4317 12.8188 15.4717 10.7488 16.5917Z" fill="white"/>
</svg>
